<mxfile host="app.diagrams.net" agent="Mozilla/5.0 (Windows NT 10.0; Win64; x64) AppleWebKit/537.36 (KHTML, like Gecko) Chrome/138.0.0.0 Safari/537.36 Edg/138.0.0.0" version="28.0.5">
  <diagram id="HOvKb7C-r2zsH8_QAMtb" name="Page-1">
    <mxGraphModel dx="1134" dy="511" grid="1" gridSize="10" guides="1" tooltips="1" connect="1" arrows="1" fold="1" page="1" pageScale="1" pageWidth="850" pageHeight="1100" math="0" shadow="0">
      <root>
        <mxCell id="0" />
        <mxCell id="1" parent="0" />
        <mxCell id="i1TUdT7g9u_zAwWK0RZQ-1" value="Admin" style="shape=umlActor;verticalLabelPosition=bottom;verticalAlign=top;html=1;outlineConnect=0;" vertex="1" parent="1">
          <mxGeometry x="80" y="105" width="30" height="60" as="geometry" />
        </mxCell>
        <mxCell id="i1TUdT7g9u_zAwWK0RZQ-2" value="Retrieve seat detail" style="ellipse;whiteSpace=wrap;html=1;" vertex="1" parent="1">
          <mxGeometry x="260" y="50" width="110" height="70" as="geometry" />
        </mxCell>
        <mxCell id="i1TUdT7g9u_zAwWK0RZQ-3" value="Force return seat" style="ellipse;whiteSpace=wrap;html=1;" vertex="1" parent="1">
          <mxGeometry x="490" y="55" width="110" height="65" as="geometry" />
        </mxCell>
        <mxCell id="i1TUdT7g9u_zAwWK0RZQ-4" value="" style="endArrow=classic;html=1;rounded=0;entryX=0;entryY=0.5;entryDx=0;entryDy=0;exitX=1;exitY=0.3333333333333333;exitDx=0;exitDy=0;exitPerimeter=0;" edge="1" parent="1" source="i1TUdT7g9u_zAwWK0RZQ-1" target="i1TUdT7g9u_zAwWK0RZQ-2">
          <mxGeometry width="50" height="50" relative="1" as="geometry">
            <mxPoint x="440" y="315" as="sourcePoint" />
            <mxPoint x="490" y="265" as="targetPoint" />
          </mxGeometry>
        </mxCell>
        <mxCell id="i1TUdT7g9u_zAwWK0RZQ-5" value="&amp;lt;&amp;lt;extend&amp;gt;&amp;gt;" style="html=1;verticalAlign=bottom;labelBackgroundColor=none;endArrow=open;endFill=0;dashed=1;rounded=0;entryX=1;entryY=0.5;entryDx=0;entryDy=0;exitX=0;exitY=0.5;exitDx=0;exitDy=0;" edge="1" parent="1" source="i1TUdT7g9u_zAwWK0RZQ-3" target="i1TUdT7g9u_zAwWK0RZQ-2">
          <mxGeometry width="160" relative="1" as="geometry">
            <mxPoint x="430" y="35" as="sourcePoint" />
            <mxPoint x="590" y="35" as="targetPoint" />
          </mxGeometry>
        </mxCell>
        <mxCell id="i1TUdT7g9u_zAwWK0RZQ-6" value="&amp;lt;&amp;lt;include&amp;gt;&amp;gt;" style="html=1;verticalAlign=bottom;labelBackgroundColor=none;endArrow=open;endFill=0;dashed=1;rounded=0;entryX=0;entryY=0.5;entryDx=0;entryDy=0;exitX=1;exitY=0.5;exitDx=0;exitDy=0;" edge="1" parent="1" source="i1TUdT7g9u_zAwWK0RZQ-7" target="i1TUdT7g9u_zAwWK0RZQ-8">
          <mxGeometry width="160" relative="1" as="geometry">
            <mxPoint x="480" y="275" as="sourcePoint" />
            <mxPoint x="610" y="315" as="targetPoint" />
          </mxGeometry>
        </mxCell>
        <mxCell id="i1TUdT7g9u_zAwWK0RZQ-7" value="Retrieve floor" style="ellipse;whiteSpace=wrap;html=1;" vertex="1" parent="1">
          <mxGeometry x="260" y="235" width="110" height="65" as="geometry" />
        </mxCell>
        <mxCell id="i1TUdT7g9u_zAwWK0RZQ-8" value="Retrieve building" style="ellipse;whiteSpace=wrap;html=1;" vertex="1" parent="1">
          <mxGeometry x="510" y="235" width="110" height="65" as="geometry" />
        </mxCell>
        <mxCell id="i1TUdT7g9u_zAwWK0RZQ-9" value="&amp;lt;&amp;lt;include&amp;gt;&amp;gt;" style="html=1;verticalAlign=bottom;labelBackgroundColor=none;endArrow=open;endFill=0;dashed=1;rounded=0;exitX=0.5;exitY=1;exitDx=0;exitDy=0;entryX=0.5;entryY=0;entryDx=0;entryDy=0;" edge="1" parent="1" source="i1TUdT7g9u_zAwWK0RZQ-2" target="i1TUdT7g9u_zAwWK0RZQ-7">
          <mxGeometry width="160" relative="1" as="geometry">
            <mxPoint x="290" y="205" as="sourcePoint" />
            <mxPoint x="450" y="205" as="targetPoint" />
          </mxGeometry>
        </mxCell>
      </root>
    </mxGraphModel>
  </diagram>
</mxfile>
